# xmcd CD database file
#
# Track frame offsets:
#	150
#	13775
#	32391
#	48839
#	63518
#	74624
#	94094
#	110240
#	128990
#	145687
#	156449
#	180308
#	196594
#	214153
#
# Disc length: 3057 seconds
#
# Revision: 0
# Processed by: cddbd v1.5.1PL0 Copyright (c) Steve Scherf et al.
# Submitted via: CDex 1.51
#
DISCID=c40bef0e
DTITLE=Doug Rott - Last
DYEAR=2001
DGENRE=Blues
TTITLE0=What You Mean To Me
TTITLE1=I Can Face Midnight
TTITLE2=Where Nobody Knows My Name
TTITLE3=Best Time To Ramble
TTITLE4=Don't Walk On By
TTITLE5=Give A Little Bit
TTITLE6=Through and Through
TTITLE7=Stranded In The Cold
TTITLE8=Can't See Why
TTITLE9=Smile At Everybody
TTITLE10=In the Mean Meantime
TTITLE11=Only Do What I Need To
TTITLE12=Pour the Night Away
TTITLE13=You Never Know
EXTD=YEAR: 2001
EXTT0=
EXTT1=
EXTT2=
EXTT3=
EXTT4=
EXTT5=
EXTT6=
EXTT7=
EXTT8=
EXTT9=
EXTT10=
EXTT11=
EXTT12=
EXTT13=
PLAYORDER=
